<svg width="128" height="48" viewBox="0 0 128 48" fill="none" xmlns="http://www.w3.org/2000/svg">
<g clip-path="url(#clip0_104_40)">
<path d="M54.68 39.1C54.16 39.1 53.7267 39.0667 53.38 39C53.0467 38.9333 52.7733 38.7733 52.56 38.52C52.36 38.2533 52.2 37.8467 52.08 37.3C51.6933 37.2067 51.4133 37.04 51.24 36.8C51.08 36.5467 51 36.22 51 35.82V35.42C51.0933 34.7267 51.18 34.0867 51.26 33.5C51.34 32.9 51.38 32.26 51.38 31.58C51.38 31.0467 51.3733 30.58 51.36 30.18C51.36 29.7667 51.3333 29.28 51.28 28.72C51.2933 28.6533 51.2133 28.5933 51.04 28.54C50.8667 28.4867 50.7533 28.4533 50.7 28.44C50.5267 28.3733 50.3667 28.2667 50.22 28.12C50.0733 27.96 50 27.7333 50 27.44C50 27.1067 50.1533 26.8067 50.46 26.54C50.78 26.26 51.1867 26.0133 51.68 25.8C52.1867 25.5867 52.7133 25.4133 53.26 25.28C53.8067 25.1333 54.32 25.0267 54.8 24.96C55.28 24.88 55.66 24.84 55.94 24.84C56.6067 24.84 57.2333 24.9733 57.82 25.24C58.4067 25.4933 58.8867 25.8733 59.26 26.38C59.6333 26.8733 59.82 27.4867 59.82 28.22V28.72C59.78 28.88 59.7 29.0667 59.58 29.28C59.4733 29.4933 59.3667 29.7 59.26 29.9C59.1667 30.1 59.12 30.26 59.12 30.38C59.12 30.4467 59.2 30.5267 59.36 30.62C59.5333 30.7 59.7133 30.78 59.9 30.86C60.1 30.9267 60.2333 30.9933 60.3 31.06C60.8333 31.5533 61.2267 32.0467 61.48 32.54C61.7467 33.0333 61.88 33.6333 61.88 34.34V35.14C61.72 35.86 61.3667 36.4733 60.82 36.98C60.2867 37.4867 59.66 37.9 58.94 38.22C58.22 38.5267 57.48 38.7533 56.72 38.9C55.96 39.0333 55.28 39.1 54.68 39.1ZM53.28 36.76H54.46C55.1 36.76 55.68 36.7333 56.2 36.68C56.7333 36.6133 57.2333 36.4733 57.7 36.26C58.1667 36.0333 58.6333 35.68 59.1 35.2C59.2867 35.0133 59.4267 34.8267 59.52 34.64C59.6133 34.4533 59.66 34.2267 59.66 33.96C59.66 33.52 59.48 33.1533 59.12 32.86C58.76 32.5533 58.3533 32.4 57.9 32.4H54.76C54.4 32.4 54.22 32.1933 54.22 31.78C54.22 31.7267 54.22 31.6733 54.22 31.62C54.2333 31.5667 54.24 31.52 54.24 31.48C54.24 31.12 54.3533 30.8333 54.58 30.62C54.8067 30.3933 55.0867 30.2067 55.42 30.06C55.7533 29.9 56.08 29.74 56.4 29.58C56.7333 29.4067 57.0133 29.2067 57.24 28.98C57.4667 28.74 57.58 28.4267 57.58 28.04C57.58 27.7733 57.48 27.5733 57.28 27.44C57.0933 27.3067 56.8733 27.2133 56.62 27.16C56.3667 27.1067 56.14 27.08 55.94 27.08C55.5133 27.08 55.0667 27.1333 54.6 27.24C54.1333 27.3467 53.7667 27.5533 53.5 27.86V28.62C53.5 29.26 53.5133 29.9 53.54 30.54C53.58 31.18 53.6 31.82 53.6 32.46V33.34C53.6 33.4467 53.5933 33.6267 53.58 33.88C53.5667 34.12 53.5467 34.36 53.52 34.6C53.5067 34.84 53.5 35.0133 53.5 35.12C53.5 35.3867 53.4533 35.6533 53.36 35.92C53.28 36.1733 53.2267 36.4333 53.2 36.7L53.28 36.76ZM66.9472 44.24C66.7072 44.24 66.5272 44.12 66.4072 43.88C66.2872 43.6533 66.2272 43.4267 66.2272 43.2C66.2272 42.7733 66.3205 42.3667 66.5072 41.98C66.6939 41.6067 66.8605 41.2267 67.0072 40.84C67.0739 40.6667 67.1539 40.44 67.2472 40.16C67.3539 39.8933 67.4539 39.62 67.5472 39.34C67.6539 39.06 67.7405 38.82 67.8072 38.62C67.8739 38.42 67.9072 38.3067 67.9072 38.28V38.22C67.1739 38.1667 66.5605 37.9733 66.0672 37.64C65.5739 37.3067 65.1805 36.8867 64.8872 36.38C64.5939 35.8733 64.3739 35.32 64.2272 34.72C64.0805 34.1067 63.9805 33.4867 63.9272 32.86C63.8872 32.2333 63.8672 31.6467 63.8672 31.1C63.8672 30.9267 63.8739 30.7 63.8872 30.42C63.9005 30.1267 63.9339 29.8333 63.9872 29.54C64.0539 29.2467 64.1539 29 64.2872 28.8C64.4339 28.6 64.6339 28.5 64.8872 28.5C65.3805 28.5 65.7005 28.68 65.8472 29.04C66.0072 29.4 66.0872 29.7933 66.0872 30.22C66.0872 30.5133 66.0672 30.7867 66.0272 31.04C66.0005 31.2933 65.9872 31.5733 65.9872 31.88V32.08C65.9872 32.1733 66.0072 32.3733 66.0472 32.68C66.0872 32.9867 66.1272 33.3 66.1672 33.62C66.2205 33.94 66.2605 34.18 66.2872 34.34C66.3539 34.78 66.4872 35.1667 66.6872 35.5C66.8872 35.82 67.1672 35.98 67.5272 35.98C67.9539 35.98 68.3272 35.8133 68.6472 35.48C68.9805 35.1467 69.2739 34.7133 69.5272 34.18C69.7939 33.6467 70.0472 33.0867 70.2872 32.5C70.5272 31.9 70.7672 31.3333 71.0072 30.8C71.2472 30.2667 71.5072 29.8333 71.7872 29.5C72.0805 29.1667 72.4072 29 72.7672 29C73.3672 29 73.6672 29.3333 73.6672 30C73.6672 30.4533 73.5939 30.8867 73.4472 31.3C73.3139 31.7133 73.1405 32.1133 72.9272 32.5C72.7272 32.8867 72.5139 33.2667 72.2872 33.64C72.0605 34.0133 71.8605 34.3933 71.6872 34.78C71.1539 35.9133 70.6605 37.08 70.2072 38.28C69.7672 39.4667 69.3405 40.66 68.9272 41.86C68.8205 42.1667 68.6872 42.5067 68.5272 42.88C68.3672 43.2533 68.1605 43.5733 67.9072 43.84C67.6672 44.1067 67.3472 44.24 66.9472 44.24ZM84.3617 38.9C83.9884 38.9 83.7284 38.7933 83.5817 38.58C83.4484 38.3667 83.3751 38.1133 83.3617 37.82C83.3484 37.5133 83.3417 37.24 83.3417 37C83.3417 35.3333 83.5417 33.6933 83.9417 32.08C84.3417 30.4667 84.7951 28.8867 85.3017 27.34C85.4484 26.8867 85.6484 26.5267 85.9017 26.26C86.1551 25.98 86.5284 25.84 87.0217 25.84C87.3951 25.84 87.7151 25.96 87.9817 26.2C88.2484 26.44 88.4751 26.74 88.6617 27.1C88.8617 27.4467 89.0151 27.7867 89.1217 28.12L90.3817 31.94L90.4617 32.02C90.5017 31.98 90.5351 31.94 90.5617 31.9C90.5884 31.86 90.6084 31.8133 90.6217 31.76C90.6884 31.5733 90.7884 31.2933 90.9217 30.92C91.0684 30.5333 91.2217 30.1267 91.3817 29.7C91.5551 29.26 91.7084 28.86 91.8417 28.5C91.9751 28.1267 92.0684 27.8733 92.1217 27.74C92.2551 27.4067 92.4017 27.0867 92.5617 26.78C92.7351 26.4733 92.9551 26.2267 93.2217 26.04C93.4884 25.84 93.8217 25.74 94.2217 25.74C94.6217 25.74 94.9617 25.8733 95.2417 26.14C95.5217 26.3933 95.7484 26.7133 95.9217 27.1C96.0951 27.4733 96.2284 27.8467 96.3217 28.22C96.6684 29.5 96.9351 30.8067 97.1217 32.14C97.3084 33.46 97.4017 34.78 97.4017 36.1V36.9C97.2817 37.22 97.1351 37.42 96.9617 37.5C96.7884 37.58 96.5684 37.62 96.3017 37.62C95.9951 37.62 95.7551 37.54 95.5817 37.38C95.4217 37.2067 95.2951 36.9933 95.2017 36.74C95.1217 36.4867 95.0684 36.2267 95.0417 35.96C95.0151 35.68 94.9884 35.4333 94.9617 35.22C94.8684 34.2467 94.7751 33.2733 94.6817 32.3C94.5884 31.3133 94.4284 30.32 94.2017 29.32L94.1017 29.14H94.0417C93.9484 29.42 93.8284 29.7667 93.6817 30.18C93.5351 30.58 93.3817 30.9933 93.2217 31.42C93.0751 31.8467 92.9417 32.2267 92.8217 32.56C92.7017 32.8933 92.6151 33.1267 92.5617 33.26C92.4951 33.46 92.3884 33.7133 92.2417 34.02C92.1084 34.3267 91.9417 34.64 91.7417 34.96C91.5417 35.2667 91.3217 35.5267 91.0817 35.74C90.8551 35.94 90.6151 36.04 90.3617 36.04C90.0417 36.04 89.7484 35.8867 89.4817 35.58C89.2151 35.26 88.9684 34.8533 88.7417 34.36C88.5151 33.8533 88.3017 33.3133 88.1017 32.74C87.9151 32.1667 87.7417 31.6133 87.5817 31.08C87.4351 30.5467 87.3017 30.1 87.1817 29.74C87.1817 29.6733 87.1284 29.5867 87.0217 29.48C86.9551 29.5733 86.9084 29.6533 86.8817 29.72C86.8684 29.7867 86.8617 29.8533 86.8617 29.92C86.7417 30.4533 86.6151 30.9867 86.4817 31.52C86.3617 32.04 86.2617 32.5733 86.1817 33.12C86.1417 33.36 86.1017 33.5933 86.0617 33.82C86.0351 34.0333 86.0084 34.2067 85.9817 34.34C85.9817 34.46 85.9617 34.6467 85.9217 34.9C85.8951 35.1533 85.8617 35.4267 85.8217 35.72C85.7951 36 85.7617 36.26 85.7217 36.5C85.6951 36.74 85.6817 36.9067 85.6817 37C85.6551 37.2667 85.5951 37.5533 85.5017 37.86C85.4084 38.1533 85.2684 38.4 85.0817 38.6C84.9084 38.8 84.6684 38.9 84.3617 38.9ZM102.352 39.02C102.112 39.02 101.892 38.9333 101.692 38.76C101.506 38.5867 101.412 38.3333 101.412 38C101.412 37.56 101.532 37.2267 101.772 37C102.026 36.7733 102.299 36.66 102.592 36.66C102.846 36.66 103.072 36.7533 103.272 36.94C103.472 37.1267 103.566 37.4067 103.552 37.78C103.526 38.1933 103.386 38.5067 103.132 38.72C102.892 38.92 102.632 39.02 102.352 39.02Z" fill="#FF5BB3"/>
<path d="M6.84 20.5C5.72 20.5 4.72 20.2467 3.84 19.74C2.96 19.2333 2.26667 18.5333 1.76 17.64C1.25333 16.7333 1 15.7067 1 14.56C1 13.8667 1.10667 13.14 1.32 12.38C1.53333 11.6067 1.83333 10.86 2.22 10.14C2.62 9.42 3.09333 8.76667 3.64 8.18C4.2 7.58 4.82667 7.10667 5.52 6.76C6.21333 6.41333 6.95333 6.24 7.74 6.24C8.34 6.24 8.93333 6.36 9.52 6.6C10.12 6.84 10.6133 7.2 11 7.68C11.4 8.14667 11.6 8.73333 11.6 9.44V10.04C11.5067 10.2667 11.38 10.4067 11.22 10.46C11.06 10.5133 10.88 10.54 10.68 10.54C10.4 10.54 10.18 10.4667 10.02 10.32C9.87333 10.1733 9.74667 9.99333 9.64 9.78C9.53333 9.56667 9.42 9.35333 9.3 9.14C9.18 8.92667 9.01333 8.74667 8.8 8.6C8.6 8.45333 8.31333 8.38 7.94 8.38C7.22 8.38 6.57333 8.56 6 8.92C5.44 9.26667 4.96 9.72667 4.56 10.3C4.16 10.8733 3.85333 11.4933 3.64 12.16C3.42667 12.8133 3.32 13.4467 3.32 14.06C3.32 14.5267 3.39333 15.0067 3.54 15.5C3.68667 15.98 3.89333 16.4333 4.16 16.86C4.44 17.2733 4.78 17.6133 5.18 17.88C5.58 18.1333 6.03333 18.26 6.54 18.26C7.15333 18.26 7.76667 18.1467 8.38 17.92C8.99333 17.6933 9.52667 17.3733 9.98 16.96C10.1933 16.76 10.42 16.5667 10.66 16.38C10.9 16.1933 11.1733 16.1 11.48 16.1C11.7733 16.1 12.0267 16.2 12.24 16.4C12.4667 16.5867 12.58 16.86 12.58 17.22C12.58 17.3667 12.54 17.5133 12.46 17.66C12.38 17.8067 12.2867 17.9467 12.18 18.08C12.0867 18.2 11.98 18.3133 11.86 18.42C11.74 18.5133 11.62 18.6133 11.5 18.72C10.8333 19.2933 10.1133 19.7333 9.34 20.04C8.56667 20.3467 7.73333 20.5 6.84 20.5ZM17.6347 19.8C17.0614 19.8 16.5814 19.68 16.1947 19.44C15.8214 19.1867 15.528 18.86 15.3147 18.46C15.1014 18.06 14.948 17.6267 14.8547 17.16C14.7747 16.68 14.7347 16.2067 14.7347 15.74V14.76C14.7347 14.72 14.7547 14.5667 14.7947 14.3C14.8347 14.02 14.8747 13.72 14.9147 13.4C14.968 13.08 15.008 12.84 15.0347 12.68C15.0747 12.4933 15.1214 12.26 15.1747 11.98C15.2414 11.6867 15.3214 11.4 15.4147 11.12C15.5214 10.8267 15.6547 10.5867 15.8147 10.4C15.988 10.2 16.1947 10.1 16.4347 10.1C16.7947 10.1 17.068 10.2067 17.2547 10.42C17.4547 10.6333 17.5547 10.8933 17.5547 11.2C17.5547 11.4533 17.5147 11.7 17.4347 11.94C17.368 12.18 17.308 12.4267 17.2547 12.68C17.1614 13.1867 17.068 13.6933 16.9747 14.2C16.8947 14.7067 16.8547 15.22 16.8547 15.74C16.8547 15.9267 16.868 16.1667 16.8947 16.46C16.9214 16.7533 16.9947 17.0133 17.1147 17.24C17.2347 17.4667 17.4414 17.58 17.7347 17.58C17.9614 17.58 18.228 17.4333 18.5347 17.14C18.8547 16.8467 19.188 16.4667 19.5347 16C19.8947 15.5333 20.2547 15.0267 20.6147 14.48C20.9747 13.92 21.308 13.38 21.6147 12.86C21.9347 12.3267 22.208 11.86 22.4347 11.46C22.6614 11.0467 22.8214 10.76 22.9147 10.6C23.0214 10.4533 23.1347 10.3333 23.2547 10.24C23.3747 10.1467 23.528 10.1 23.7147 10.1C24.3414 10.1 24.7147 10.3933 24.8347 10.98V11.7C24.8347 12.2867 24.8147 12.8733 24.7747 13.46C24.748 14.0333 24.7347 14.5933 24.7347 15.14V16.32C24.7747 16.5333 24.8614 16.7267 24.9947 16.9C25.128 17.0733 25.248 17.2467 25.3547 17.42C25.4747 17.58 25.5347 17.7733 25.5347 18C25.5347 18.3067 25.4414 18.5667 25.2547 18.78C25.068 18.9933 24.8214 19.1 24.5147 19.1C24.1147 19.1 23.7947 18.9667 23.5547 18.7C23.3147 18.42 23.128 18.0933 22.9947 17.72C22.9147 17.48 22.8214 17.1733 22.7147 16.8C22.6214 16.4133 22.528 16.0333 22.4347 15.66C22.2347 16.0067 22.008 16.3533 21.7547 16.7C21.5147 17.0333 21.2614 17.36 20.9947 17.68C20.568 18.2133 20.068 18.7 19.4947 19.14C18.9214 19.58 18.3014 19.8 17.6347 19.8ZM29.0011 25.64C28.7878 25.64 28.6144 25.58 28.4811 25.46C28.3478 25.34 28.2211 25.16 28.1011 24.92V23.54C28.1011 22.2467 28.1811 20.9733 28.3411 19.72C28.5144 18.4667 28.6011 17.1733 28.6011 15.84V13.7C28.5078 13.5533 28.3944 13.44 28.2611 13.36C28.1411 13.28 28.0344 13.1867 27.9411 13.08C27.8478 12.9733 27.8011 12.8133 27.8011 12.6C27.8011 12.3467 27.8344 12.1467 27.9011 12C27.9811 11.8533 28.1811 11.6133 28.5011 11.28V9.24C28.5011 9.02667 28.6211 8.85333 28.8611 8.72C29.1144 8.58667 29.3278 8.52 29.5011 8.52C29.7278 8.52 29.9011 8.58667 30.0211 8.72C30.1411 8.84 30.2344 8.98667 30.3011 9.16C30.3678 9.33333 30.4278 9.48667 30.4811 9.62C30.5344 9.74 30.6078 9.8 30.7011 9.8C30.8344 9.8 30.9744 9.76 31.1211 9.68C31.2811 9.6 31.4278 9.54 31.5611 9.5C31.6678 9.46 31.8078 9.42 31.9811 9.38C32.1544 9.32667 32.3211 9.28667 32.4811 9.26C32.6411 9.22 32.7344 9.2 32.7611 9.2H33.6411C34.4678 9.2 35.2411 9.34667 35.9611 9.64C36.6811 9.92 37.2678 10.3533 37.7211 10.94C38.1744 11.5267 38.4011 12.2733 38.4011 13.18C38.4011 13.98 38.2411 14.78 37.9211 15.58C37.6011 16.3667 37.1611 17.0933 36.6011 17.76C36.0411 18.4133 35.3944 18.94 34.6611 19.34C33.9411 19.7267 33.1744 19.92 32.3611 19.92C32.1078 19.92 31.8478 19.8867 31.5811 19.82C31.3278 19.7533 31.0678 19.72 30.8011 19.72H30.6211C30.6078 20.0533 30.5811 20.4267 30.5411 20.84C30.5144 21.2667 30.4878 21.6533 30.4611 22C30.4344 22.3467 30.4211 22.5933 30.4211 22.74C30.4211 22.7933 30.4144 22.84 30.4011 22.88L30.3811 23C30.3544 23.1867 30.3211 23.3733 30.2811 23.56C30.2544 23.76 30.2344 23.9533 30.2211 24.14C30.1811 24.34 30.1144 24.5533 30.0211 24.78C29.9411 25.02 29.8144 25.22 29.6411 25.38C29.4811 25.5533 29.2678 25.64 29.0011 25.64ZM32.2611 17.78C32.8078 17.78 33.3211 17.6467 33.8011 17.38C34.2811 17.1 34.7078 16.74 35.0811 16.3C35.4544 15.8467 35.7478 15.36 35.9611 14.84C36.1744 14.3067 36.2811 13.7867 36.2811 13.28C36.2811 12.56 36.0278 12.04 35.5211 11.72C35.0278 11.4 34.4344 11.24 33.7411 11.24C33.4878 11.24 33.2478 11.2533 33.0211 11.28C32.7944 11.2933 32.5811 11.3467 32.3811 11.44C31.6478 11.76 31.1811 12.12 30.9811 12.52C30.7811 12.9067 30.6811 13.36 30.6811 13.88C30.6811 14.0933 30.6878 14.3267 30.7011 14.58C30.7144 14.82 30.7211 15.0733 30.7211 15.34V16.92C30.7211 17.1467 30.8078 17.3267 30.9811 17.46C31.1544 17.58 31.3611 17.6667 31.6011 17.72C31.8544 17.76 32.0744 17.78 32.2611 17.78ZM44.4439 19.7C43.4839 19.7 42.6772 19.4667 42.0239 19C41.3839 18.52 40.8972 17.9 40.5639 17.14C40.2439 16.3667 40.0839 15.54 40.0839 14.66C40.0839 13.66 40.3039 12.74 40.7439 11.9C41.1972 11.06 41.8172 10.3867 42.6039 9.88C43.4039 9.36 44.3106 9.1 45.3239 9.1C45.6306 9.1 45.9706 9.13333 46.3439 9.2C46.7306 9.25333 47.1039 9.36 47.4639 9.52C47.8239 9.66667 48.1172 9.86667 48.3439 10.12C48.5839 10.3733 48.7039 10.7 48.7039 11.1C48.7039 11.3933 48.5972 11.62 48.3839 11.78C48.1706 11.94 47.9106 12.02 47.6039 12.02C47.2839 12.02 46.9972 11.94 46.7439 11.78C46.4906 11.6067 46.2372 11.44 45.9839 11.28C45.7306 11.1067 45.4439 11.02 45.1239 11.02C44.6839 11.02 44.2839 11.1533 43.9239 11.42C43.5639 11.6867 43.2572 12.0267 43.0039 12.44C42.7506 12.8533 42.5506 13.2933 42.4039 13.76C42.2706 14.2133 42.2039 14.64 42.2039 15.04C42.2039 15.72 42.3372 16.2467 42.6039 16.62C42.8839 16.98 43.2572 17.2333 43.7239 17.38C44.2039 17.5133 44.7372 17.58 45.3239 17.58C45.8706 17.58 46.3772 17.4733 46.8439 17.26C47.3239 17.0467 47.8039 16.8267 48.2839 16.6H48.6839C49.2839 16.6 49.5839 16.9 49.5839 17.5C49.5839 17.86 49.4439 18.1667 49.1639 18.42C48.8972 18.6733 48.5506 18.8867 48.1239 19.06C47.6972 19.22 47.2439 19.3467 46.7639 19.44C46.2839 19.5333 45.8372 19.6 45.4239 19.64C45.0106 19.68 44.6839 19.7 44.4439 19.7ZM55.3459 20.2C54.7326 20.2 54.1593 20.06 53.6259 19.78C53.0926 19.5 52.6459 19.1267 52.2859 18.66C51.9259 18.18 51.6926 17.64 51.5859 17.04V16.02C51.5859 15.2733 51.7193 14.52 51.9859 13.76C52.2526 13 52.6326 12.3 53.1259 11.66C53.6193 11.0067 54.2059 10.4867 54.8859 10.1C55.5659 9.7 56.3126 9.5 57.1259 9.5C57.4593 9.5 57.7459 9.56 57.9859 9.68C58.2393 9.8 58.4659 9.92667 58.6659 10.06C58.8793 10.18 59.0859 10.2533 59.2859 10.28C59.3926 9.73333 59.5393 9.37333 59.7259 9.2C59.9126 9.01333 60.1659 8.92 60.4859 8.92C60.8726 8.92 61.1326 9.04667 61.2659 9.3C61.4126 9.54 61.4859 9.84667 61.4859 10.22C61.4859 10.9533 61.4659 11.6733 61.4259 12.38C61.3993 13.0867 61.3859 13.8133 61.3859 14.56C61.3859 15.1467 61.4193 15.7533 61.4859 16.38C61.5526 17.0067 61.5859 17.6133 61.5859 18.2V18.62C61.5859 18.9133 61.5259 19.1867 61.4059 19.44C61.2993 19.68 61.0526 19.8 60.6659 19.8C60.3059 19.8 60.0459 19.6933 59.8859 19.48C59.7393 19.2533 59.6393 18.9867 59.5859 18.68C59.5459 18.36 59.5059 18.0733 59.4659 17.82L59.3859 17.74C58.9326 18.1933 58.5259 18.6067 58.1659 18.98C57.8193 19.3533 57.4326 19.6533 57.0059 19.88C56.5793 20.0933 56.0259 20.2 55.3459 20.2ZM55.1459 18.18C55.6126 18.18 56.0526 18.04 56.4659 17.76C56.8926 17.4667 57.2726 17.0933 57.6059 16.64C57.9393 16.1733 58.1993 15.6867 58.3859 15.18C58.5726 14.6733 58.6659 14.2 58.6659 13.76C58.6659 13.4267 58.6193 13.0933 58.5259 12.76C58.4326 12.4133 58.2726 12.12 58.0459 11.88C57.8326 11.64 57.5259 11.52 57.1259 11.52C56.6859 11.52 56.2526 11.6733 55.8259 11.98C55.4126 12.2867 55.0393 12.68 54.7059 13.16C54.3726 13.6267 54.1059 14.12 53.9059 14.64C53.7059 15.1467 53.6059 15.6067 53.6059 16.02C53.6059 16.3533 53.6526 16.6867 53.7459 17.02C53.8526 17.3533 54.0193 17.6333 54.2459 17.86C54.4726 18.0733 54.7726 18.18 55.1459 18.18ZM64.9734 20.2C64.6801 20.2 64.4334 20.0933 64.2334 19.88C64.0468 19.6667 63.9534 19.4267 63.9534 19.16V18.78L64.6534 11.48V6.96C64.6534 6.68 64.6668 6.36 64.6934 6C64.7201 5.64 64.8134 5.32667 64.9734 5.06C65.1468 4.79333 65.4401 4.66 65.8534 4.66C66.2268 4.66 66.4868 4.78667 66.6334 5.04C66.7934 5.29333 66.8868 5.59333 66.9134 5.94C66.9534 6.28667 66.9734 6.59333 66.9734 6.86C66.9734 7.63333 66.9401 8.42667 66.8734 9.24C66.8201 10.04 66.7868 10.9133 66.7734 11.86H67.0134C67.0401 11.86 67.1601 11.8267 67.3734 11.76C67.5868 11.68 67.8401 11.5933 68.1334 11.5C68.4268 11.3933 68.7134 11.2867 68.9934 11.18C69.2868 11.06 69.5201 10.96 69.6934 10.88C69.9334 10.76 70.2001 10.6267 70.4934 10.48C70.7868 10.32 71.0868 10.18 71.3934 10.06C71.7001 9.94 71.9868 9.88 72.2534 9.88C72.5601 9.88 72.8001 9.99333 72.9734 10.22C73.1601 10.4333 73.2534 10.6933 73.2534 11C73.2534 11.36 73.1201 11.6133 72.8534 11.76C72.5868 11.8933 72.3201 12.0133 72.0534 12.12C71.9201 12.1867 71.6801 12.2933 71.3334 12.44C71.0001 12.5867 70.6201 12.7467 70.1934 12.92C69.7668 13.08 69.3534 13.24 68.9534 13.4C68.5534 13.5467 68.2134 13.6733 67.9334 13.78V13.84L68.0334 13.94C68.1268 14.0333 68.2201 14.1133 68.3134 14.18C68.4201 14.2467 68.5201 14.3267 68.6134 14.42C68.8134 14.54 69.1134 14.7333 69.5134 15C69.9134 15.2667 70.3401 15.5533 70.7934 15.86C71.2601 16.1667 71.6868 16.4533 72.0734 16.72C72.4734 16.9733 72.7601 17.1533 72.9334 17.26C73.1068 17.3933 73.2934 17.5333 73.4934 17.68C73.6934 17.8133 73.8668 17.9733 74.0134 18.16C74.1734 18.3333 74.2534 18.54 74.2534 18.78C74.2534 19.1 74.1601 19.3667 73.9734 19.58C73.8001 19.7933 73.5868 19.9 73.3334 19.9C73.0134 19.9 72.6934 19.8067 72.3734 19.62C72.0668 19.4333 71.7668 19.2133 71.4734 18.96C71.1934 18.7067 70.9268 18.4933 70.6734 18.32C70.5401 18.2267 70.2868 18.06 69.9134 17.82C69.5534 17.58 69.1468 17.3133 68.6934 17.02C68.2534 16.7267 67.8334 16.4467 67.4334 16.18C67.0468 15.9133 66.7468 15.7067 66.5334 15.56H66.4534L66.3734 15.74L65.9734 19.28C65.9201 19.5467 65.7934 19.7667 65.5934 19.94C65.4068 20.1133 65.2001 20.2 64.9734 20.2ZM81.1838 20.3C80.2238 20.3 79.3371 20.1533 78.5238 19.86C77.7238 19.5533 77.0771 19.0733 76.5838 18.42C76.0904 17.7533 75.8438 16.8933 75.8438 15.84C75.8438 15.04 75.9704 14.26 76.2238 13.5C76.4904 12.74 76.8704 12.0533 77.3638 11.44C77.8571 10.8133 78.4504 10.32 79.1438 9.96C79.8371 9.58667 80.6171 9.4 81.4838 9.4C82.0704 9.4 82.6171 9.52 83.1238 9.76C83.6438 9.98667 84.0571 10.3267 84.3638 10.78C84.6838 11.22 84.8438 11.76 84.8438 12.4C84.8438 13.0133 84.7171 13.6 84.4638 14.16C84.2104 14.72 83.8638 15.22 83.4238 15.66C82.9838 16.1 82.4838 16.4467 81.9238 16.7C81.3771 16.94 80.8038 17.06 80.2038 17.06C80.1104 17.06 79.9038 17.04 79.5838 17C79.2638 16.9467 79.0104 16.8933 78.8238 16.84C78.6904 16.8133 78.5838 16.76 78.5038 16.68C78.4771 16.6667 78.4304 16.6467 78.3638 16.62C78.2971 16.58 78.2504 16.56 78.2238 16.56C78.3171 16.9467 78.5104 17.2733 78.8038 17.54C79.1104 17.7933 79.4571 17.98 79.8438 18.1C80.2438 18.22 80.6238 18.28 80.9838 18.28C81.2371 18.28 81.4904 18.2667 81.7438 18.24C82.0104 18.2 82.2904 18.18 82.5838 18.18C82.8771 18.18 83.1304 18.26 83.3438 18.42C83.5571 18.58 83.6638 18.84 83.6638 19.2C83.6638 19.4933 83.5704 19.72 83.3838 19.88C83.2104 20.04 82.9838 20.1467 82.7038 20.2C82.4371 20.2533 82.1638 20.28 81.8838 20.28C81.6171 20.2933 81.3838 20.3 81.1838 20.3ZM80.2038 14.74C80.6038 14.74 80.9971 14.6667 81.3838 14.52C81.7838 14.36 82.1104 14.1267 82.3638 13.82C82.6304 13.5133 82.7638 13.1333 82.7638 12.68C82.7638 12.2933 82.6438 11.9867 82.4038 11.76C82.1771 11.5333 81.8704 11.42 81.4838 11.42C81.1371 11.42 80.7704 11.5133 80.3838 11.7C79.9971 11.8867 79.6304 12.1267 79.2838 12.42C78.9504 12.7133 78.6771 13.0333 78.4638 13.38C78.2504 13.7133 78.1438 14.04 78.1438 14.36V14.44C78.4904 14.4933 78.8371 14.56 79.1838 14.64C79.5304 14.7067 79.8704 14.74 80.2038 14.74ZM90.898 20.3C90.5246 20.3 90.098 20.2667 89.618 20.2C89.138 20.1467 88.6713 20.04 88.218 19.88C87.7646 19.72 87.3846 19.48 87.078 19.16C86.7846 18.84 86.638 18.42 86.638 17.9C86.638 17.5533 86.7246 17.2533 86.898 17C87.0713 16.7333 87.3513 16.6 87.738 16.6C87.978 16.6 88.1646 16.66 88.298 16.78C88.4313 16.9 88.5446 17.0467 88.638 17.22C88.7446 17.3933 88.8646 17.5733 88.998 17.76C89.1446 17.9333 89.338 18.08 89.578 18.2C89.8313 18.32 90.1713 18.38 90.598 18.38C90.9046 18.38 91.238 18.3467 91.598 18.28C91.9713 18.2 92.2913 18.06 92.558 17.86C92.8246 17.66 92.958 17.3867 92.958 17.04C92.958 16.7333 92.8313 16.4933 92.578 16.32C92.3246 16.1333 91.998 15.9733 91.598 15.84C91.198 15.7067 90.778 15.5733 90.338 15.44C89.898 15.2933 89.478 15.1133 89.078 14.9C88.678 14.6867 88.3513 14.4067 88.098 14.06C87.8446 13.7 87.718 13.24 87.718 12.68C87.718 12.16 87.8446 11.7133 88.098 11.34C88.3513 10.9667 88.678 10.66 89.078 10.42C89.4913 10.1667 89.9313 9.98667 90.398 9.88C90.878 9.76 91.338 9.7 91.778 9.7C92.0313 9.7 92.3246 9.73333 92.658 9.8C92.9913 9.85333 93.318 9.94667 93.638 10.08C93.958 10.2133 94.2246 10.4 94.438 10.64C94.6513 10.8667 94.758 11.1533 94.758 11.5C94.758 12.1133 94.4513 12.42 93.838 12.42H93.578C93.178 12.1933 92.838 12.02 92.558 11.9C92.278 11.78 91.958 11.72 91.598 11.72C91.438 11.72 91.2113 11.74 90.918 11.78C90.638 11.8067 90.3846 11.88 90.158 12C89.9313 12.12 89.818 12.3133 89.818 12.58C89.818 12.8067 89.9446 12.9933 90.198 13.14C90.4513 13.2867 90.778 13.4267 91.178 13.56C91.578 13.6933 91.998 13.84 92.438 14C92.878 14.16 93.298 14.3667 93.698 14.62C94.098 14.86 94.4246 15.1667 94.678 15.54C94.9313 15.9133 95.058 16.38 95.058 16.94C95.058 17.7533 94.8513 18.4067 94.438 18.9C94.038 19.3933 93.518 19.7533 92.878 19.98C92.2513 20.1933 91.5913 20.3 90.898 20.3Z" fill="#634136"/>
<g clip-path="url(#clip1_104_40)">
<path d="M106.129 9.40468C105.567 7.3069 106.567 5.21925 108.365 4.7374L108.907 4.59215C110.705 4.11031 112.616 5.41813 113.178 7.51592C113.699 9.46246 112.544 11.4632 110.598 11.9848C108.651 12.5064 106.65 11.3512 106.129 9.40468Z" fill="#F75B57"/>
<path d="M109.679 7.02579C109.271 6.79047 108.953 6.40045 108.822 5.91092C108.76 5.67902 108.897 5.44139 109.129 5.37925C109.36 5.31689 109.598 5.45431 109.66 5.68621C109.799 6.20183 110.332 6.50944 110.847 6.37156C111.079 6.30942 111.317 6.44684 111.379 6.67874C111.441 6.91042 111.304 7.14844 111.072 7.21042C110.583 7.34131 110.086 7.2609 109.679 7.02579Z" fill="#F98282"/>
<path d="M102.419 14.2644L101.704 19.4093C101.636 22.1071 102.223 23.1648 103.922 25.2611C105.032 26.6317 107.734 28.1914 109.465 28.4615C112.106 28.8736 113.323 28.8756 115.602 27.481L119.741 24.2652C119.33 22.7646 117.17 22.9273 115.666 23.3223C115.26 21.8245 113.329 21.6092 111.829 22.0072C111.424 20.5094 109.882 19.6191 108.382 20.0171C107.967 18.5137 106.799 16.9396 105.29 17.332C104.875 15.8285 103.928 13.8724 102.419 14.2644Z" fill="#A46F3E"/>
<path d="M103.989 22.7455C103.847 22.6639 103.758 22.5056 103.773 22.3322L104.016 19.5123C104.036 19.2735 104.246 19.096 104.485 19.1172C104.724 19.1383 104.902 19.3476 104.881 19.5868L104.639 22.4068C104.618 22.6456 104.408 22.823 104.169 22.8018C104.103 22.7963 104.042 22.7763 103.989 22.7455Z" fill="#C18B5F"/>
<path d="M111.61 27.1455C111.557 27.1147 111.509 27.072 111.472 27.018C111.334 26.8218 111.382 26.5509 111.579 26.4136L113.9 24.7937C114.096 24.6559 114.368 24.7038 114.504 24.9016C114.642 25.0977 114.594 25.3687 114.397 25.5059L112.076 27.1259C111.933 27.2252 111.751 27.2272 111.61 27.1455Z" fill="#C18B5F"/>
<path d="M108.731 26.5339C108.711 26.5228 108.692 26.5098 108.675 26.4955C108.488 26.3452 108.459 26.0715 108.609 25.8847L110.237 23.8647C110.388 23.6778 110.66 23.6496 110.848 23.7992C111.034 23.9495 111.064 24.2232 110.913 24.41L109.285 26.43C109.149 26.5987 108.913 26.639 108.731 26.5339Z" fill="#C18B5F"/>
<path d="M105.958 24.9334C105.776 24.8283 105.693 24.6031 105.771 24.401L106.706 21.9811C106.793 21.7573 107.045 21.646 107.268 21.7324C107.491 21.8201 107.603 22.0701 107.517 22.2941L106.581 24.714C106.495 24.9377 106.243 25.0491 106.02 24.9627C105.998 24.9542 105.978 24.9444 105.958 24.9334Z" fill="#C18B5F"/>
<path d="M120.47 20.3129C120.633 20.1577 120.773 19.9832 120.885 19.7885C121.49 18.7417 121.212 17.3159 120.275 15.8461C120.275 15.8461 123.786 9.84623 118.596 7.49848C118.596 7.49848 118.699 10.9757 116.468 9.71838C115.38 9.10553 114.291 8.66823 113.297 8.41328C113.32 10.0435 112.244 11.5441 110.597 11.9854C108.889 12.4431 107.139 11.6088 106.383 10.0818C106.029 10.3033 105.738 10.5813 105.537 10.9279C105.425 11.1227 105.344 11.331 105.291 11.5496C104.02 11.6943 103.051 12.1769 102.566 13.0161C102.235 13.5903 102.161 14.278 102.311 15.03L102.418 14.2644C103.928 13.8721 104.875 15.8286 105.29 17.332C106.799 16.9396 107.967 18.5137 108.382 20.0172C109.882 19.6192 111.424 20.5094 111.829 22.0072C113.329 21.6092 115.26 21.8246 115.665 23.3224C117.167 22.9283 119.32 22.7662 119.737 24.2561C120.084 24.0305 120.364 23.7487 120.563 23.4055C121.047 22.5662 120.98 21.4857 120.47 20.3129Z" fill="#FFF5BB"/>
<path d="M110.221 5.83666C110.028 5.72529 109.95 5.48287 110.045 5.27774C110.055 5.25672 110.472 4.31367 110.071 3.32125C109.749 2.52757 108.992 1.89509 107.823 1.43821C107.602 1.35294 107.489 1.09992 107.576 0.876012C107.663 0.652476 107.915 0.54212 108.139 0.629066C109.547 1.17694 110.47 1.97851 110.881 3.00943C111.421 4.36265 110.855 5.59364 110.832 5.64513C110.729 5.8623 110.471 5.95534 110.254 5.85302C110.242 5.84844 110.232 5.84274 110.221 5.83666Z" fill="#6A3311"/>
<path d="M114.084 14.0629C113.876 13.943 113.805 13.6777 113.925 13.4698C114.045 13.2618 114.311 13.191 114.518 13.3108C116.072 14.2079 117.659 14.8622 119.109 15.2019C119.342 15.2565 119.487 15.4905 119.433 15.7238C119.378 15.9572 119.144 16.1021 118.911 16.0473C117.38 15.6879 115.71 15.0018 114.084 14.0629Z" fill="#F9DA49"/>
<path d="M106.562 14.211C106.519 14.1863 106.48 14.1538 106.447 14.1139C106.117 13.7208 105.816 13.3114 105.554 12.8976C105.426 12.6952 105.485 12.4273 105.688 12.2982C105.89 12.1699 106.159 12.2292 106.287 12.4326C106.529 12.8136 106.807 13.1919 107.112 13.5561C107.266 13.7398 107.242 14.0136 107.058 14.1677C106.914 14.2882 106.715 14.2996 106.562 14.211Z" fill="#F9DA49"/>
<path d="M111.536 18.2595C110.768 17.8162 110.031 17.329 109.33 16.8004C109.138 16.6563 109.1 16.3844 109.244 16.1925C109.389 16.0012 109.664 15.9646 109.852 16.1074C111.254 17.1637 112.805 18.0485 114.461 18.7377C114.685 18.8271 114.787 19.0835 114.696 19.3052C114.604 19.5269 114.349 19.6316 114.128 19.539C113.232 19.1664 112.366 18.7386 111.536 18.2595Z" fill="#F9DA49"/>
<path d="M116.406 20.3089C116.24 20.2133 116.152 20.0161 116.203 19.8225C116.264 19.591 116.502 19.4523 116.734 19.5131C117.634 19.7504 118.481 19.8849 119.25 19.9139C119.489 19.9236 119.676 20.1251 119.667 20.3644C119.658 20.6039 119.456 20.7908 119.217 20.7822C118.385 20.7508 117.475 20.6061 116.513 20.3532C116.474 20.3429 116.438 20.3277 116.406 20.3089Z" fill="#F9DA49"/>
</g>
</g>
<defs>
<clipPath id="clip0_104_40">
<rect width="128" height="48" fill="white"/>
</clipPath>
<clipPath id="clip1_104_40">
<rect width="24" height="24" fill="white" transform="translate(107.22) rotate(30)"/>
</clipPath>
</defs>
</svg>
