<svg width="40" height="40" viewBox="0 0 40 40" fill="none" xmlns="http://www.w3.org/2000/svg">
<g clip-path="url(#clip0_8_34)">
<path d="M14.9087 13.4047C14.3466 11.3069 15.3469 9.21925 17.1451 8.7374L17.6872 8.59215C19.4855 8.11031 21.3956 9.41813 21.9577 11.5159C22.4793 13.4625 21.3241 15.4632 19.3776 15.9848C17.431 16.5064 15.4303 15.3512 14.9087 13.4047Z" fill="#F75B57"/>
<path d="M18.4586 11.0258C18.051 10.7905 17.7332 10.4004 17.6017 9.91092C17.5396 9.67902 17.6768 9.44139 17.9087 9.37925C18.1402 9.31689 18.3782 9.45431 18.4403 9.68621C18.5788 10.2018 19.1116 10.5094 19.6274 10.3716C19.8593 10.3094 20.0973 10.4468 20.1594 10.6787C20.2212 10.9104 20.0838 11.1484 19.8525 11.2104C19.3628 11.3413 18.8658 11.2609 18.4586 11.0258Z" fill="#F98282"/>
<path d="M11.1986 18.2644L10.4842 23.4093C10.4157 26.1071 11.0032 27.1648 12.7022 29.2611C13.8125 30.6317 16.5141 32.1914 18.2453 32.4615C20.8861 32.8736 22.1026 32.8756 24.3823 31.481L28.5205 28.2652C28.1105 26.7646 25.9505 26.9273 24.4456 27.3223C24.0404 25.8245 22.1087 25.6092 20.609 26.0072C20.2039 24.5094 18.6619 23.6191 17.1621 24.0171C16.7472 22.5137 15.5795 20.9396 14.07 21.332C13.6551 19.8285 12.7079 17.8724 11.1986 18.2644Z" fill="#A46F3E"/>
<path d="M12.7689 26.7455C12.6275 26.6639 12.5384 26.5056 12.5533 26.3322L12.7957 23.5123C12.8162 23.2735 13.0264 23.096 13.2654 23.1172C13.5044 23.1383 13.6819 23.3476 13.6611 23.5868L13.4187 26.4068C13.3981 26.6456 13.1879 26.823 12.9489 26.8018C12.8829 26.7963 12.8223 26.7763 12.7689 26.7455Z" fill="#C18B5F"/>
<path d="M20.3901 31.1455C20.3367 31.1147 20.2887 31.072 20.2516 31.018C20.1142 30.8218 20.1624 30.5509 20.3589 30.4136L22.6799 28.7937C22.8763 28.6559 23.1484 28.7038 23.2844 28.9016C23.4218 29.0977 23.3737 29.3687 23.1771 29.5059L20.8561 31.1259C20.713 31.2252 20.5314 31.2272 20.3901 31.1455Z" fill="#C18B5F"/>
<path d="M17.5107 30.5339C17.4915 30.5228 17.4724 30.5098 17.4546 30.4955C17.2682 30.3452 17.2387 30.0715 17.3892 29.8847L19.0172 27.8647C19.1677 27.6778 19.4401 27.6496 19.628 27.7992C19.8145 27.9495 19.8439 28.2232 19.6935 28.41L18.0655 30.43C17.9295 30.5987 17.6927 30.639 17.5107 30.5339Z" fill="#C18B5F"/>
<path d="M14.7384 28.9334C14.5564 28.8283 14.4729 28.6031 14.551 28.401L15.4863 25.9811C15.5729 25.7573 15.8247 25.646 16.0481 25.7324C16.2712 25.8201 16.383 26.0701 16.2968 26.2941L15.3614 28.714C15.2748 28.9377 15.0231 29.0491 14.7997 28.9627C14.778 28.9542 14.7576 28.9444 14.7384 28.9334Z" fill="#C18B5F"/>
<path d="M29.2502 24.3129C29.413 24.1577 29.5528 23.9832 29.6652 23.7885C30.2696 22.7417 29.9918 21.3159 29.0551 19.8461C29.0551 19.8461 32.5663 13.8462 27.3762 11.4985C27.3762 11.4985 27.4793 14.9757 25.2478 13.7184C24.1602 13.1055 23.0711 12.6682 22.0773 12.4133C22.0996 14.0435 21.0237 15.5441 19.3767 15.9854C17.6686 16.4431 15.9188 15.6088 15.1635 14.0818C14.809 14.3033 14.5177 14.5813 14.3175 14.9279C14.205 15.1227 14.1239 15.331 14.0709 15.5496C12.8002 15.6943 11.8307 16.1769 11.3461 17.0161C11.0147 17.5903 10.9415 18.278 11.0909 19.03L11.1985 18.2644C12.708 17.8721 13.6549 19.8286 14.0699 21.332C15.5793 20.9396 16.7471 22.5137 17.162 24.0172C18.6617 23.6192 20.2037 24.5094 20.6089 26.0072C22.1086 25.6092 24.0403 25.8246 24.4454 27.3224C25.9468 26.9283 28.1 26.7662 28.5167 28.2561C28.864 28.0305 29.1445 27.7487 29.3427 27.4055C29.8273 26.5662 29.7602 25.4857 29.2502 24.3129Z" fill="#FFF5BB"/>
<path d="M19.0012 9.83666C18.8083 9.72529 18.7297 9.48287 18.825 9.27774C18.8347 9.25672 19.2523 8.31367 18.8507 7.32125C18.5293 6.52757 17.7724 5.89509 16.6034 5.43821C16.3819 5.35294 16.2693 5.09992 16.3564 4.87601C16.4434 4.65248 16.6951 4.54212 16.9186 4.62907C18.3269 5.17694 19.2499 5.97851 19.6609 7.00943C20.2011 8.36265 19.6353 9.59364 19.6116 9.64513C19.5093 9.8623 19.251 9.95534 19.0338 9.85302C19.0224 9.84844 19.0117 9.84274 19.0012 9.83666Z" fill="#6A3311"/>
<path d="M22.8639 18.0629C22.6564 17.943 22.585 17.6777 22.705 17.4698C22.8251 17.2618 23.0906 17.191 23.2981 17.3108C24.8518 18.2079 26.4393 18.8622 27.8891 19.2019C28.1217 19.2565 28.2674 19.4905 28.2129 19.7238C28.1579 19.9572 27.9243 20.1021 27.6913 20.0473C26.1596 19.6879 24.4902 19.0018 22.8639 18.0629Z" fill="#F9DA49"/>
<path d="M15.3419 18.211C15.2991 18.1863 15.2602 18.1538 15.2266 18.1139C14.8965 17.7208 14.5965 17.3114 14.334 16.8976C14.2057 16.6952 14.2652 16.4273 14.468 16.2982C14.6704 16.1699 14.939 16.2292 15.0672 16.4326C15.3095 16.8136 15.5869 17.1919 15.8921 17.5561C16.0462 17.7398 16.022 18.0136 15.8382 18.1677C15.6944 18.2882 15.4953 18.2996 15.3419 18.211Z" fill="#F9DA49"/>
<path d="M20.3158 22.2595C19.548 21.8162 18.811 21.329 18.11 20.8004C17.9185 20.6563 17.8799 20.3844 18.0243 20.1925C18.1688 20.0012 18.4441 19.9646 18.6324 20.1074C20.0339 21.1637 21.5846 22.0485 23.2412 22.7377C23.4654 22.8271 23.5675 23.0835 23.4756 23.3052C23.3837 23.5269 23.1292 23.6316 22.908 23.539C22.0116 23.1664 21.1456 22.7386 20.3158 22.2595Z" fill="#F9DA49"/>
<path d="M25.1856 24.3089C25.0202 24.2133 24.932 24.0161 24.9831 23.8225C25.0441 23.591 25.2816 23.4523 25.5137 23.5131C26.4144 23.7504 27.2613 23.8849 28.0296 23.9139C28.2687 23.9236 28.4562 24.1251 28.4469 24.3644C28.438 24.6039 28.2363 24.7908 27.9966 24.7822C27.165 24.7508 26.2553 24.6061 25.2928 24.3532C25.2542 24.3429 25.2183 24.3277 25.1856 24.3089Z" fill="#F9DA49"/>
</g>
<defs>
<clipPath id="clip0_8_34">
<rect width="24" height="24" fill="white" transform="translate(16 4) rotate(30)"/>
</clipPath>
</defs>
</svg>
